<svg width="33" height="34" viewBox="0 0 33 34" fill="none" xmlns="http://www.w3.org/2000/svg">
<path d="M28.875 29.75L20.625 21.25M4.125 14.1667C4.125 15.4689 4.37396 16.7585 4.85766 17.9616C5.34136 19.1648 6.05033 20.258 6.9441 21.1788C7.83786 22.0997 8.89891 22.8301 10.0667 23.3285C11.2344 23.8268 12.486 24.0833 13.75 24.0833C15.014 24.0833 16.2656 23.8268 17.4333 23.3285C18.6011 22.8301 19.6621 22.0997 20.5559 21.1788C21.4497 20.258 22.1586 19.1648 22.6423 17.9616C23.126 16.7585 23.375 15.4689 23.375 14.1667C23.375 12.8644 23.126 11.5749 22.6423 10.3717C22.1586 9.16858 21.4497 8.07537 20.5559 7.15452C19.6621 6.23368 18.6011 5.50322 17.4333 5.00486C16.2656 4.5065 15.014 4.25 13.75 4.25C12.486 4.25 11.2344 4.5065 10.0667 5.00486C8.89891 5.50322 7.83786 6.23368 6.9441 7.15452C6.05033 8.07537 5.34136 9.16858 4.85766 10.3717C4.37396 11.5749 4.125 12.8644 4.125 14.1667Z" stroke="#85B6FF" stroke-width="4" stroke-linecap="round" stroke-linejoin="round"/>
</svg>
